PathFileType	4	(X/Y/Z)	E:\Qualisys_Data\Carbon_Farble_Plate\Data\Amateur_Runner\S2\T1\S2T1V13_c3d.trc
DataRate	CameraRate	NumFrames	NumMarkers	Units	OrigDataRate	OrigDataStartFrame	OrigNumFrames
200.000000	200.000000	5	39	mm	200.000000	77	308
Frame#	Time	LSHO			RSHO			LICST			RICST			LASIS			LHEEL			RASIS			LTROC			RTROC			SACR			LTH1			LSK4			LTH2			LTH3			RHM5			LSK2			LTH4			RTH1			LTOE			RTH2			RTH3			RTH4			LLEP			RLEP			LSK1			LSK3			RSK1			LHM5			RSK2			LFT1			RSK3			RSK4			LLME			RLME			RTOE			RHEEL			RFT1			RFT2			LFT2			
		X1	Y1	Z1	X2	Y2	Z2	X3	Y3	Z3	X4	Y4	Z4	X5	Y5	Z5	X6	Y6	Z6	X7	Y7	Z7	X8	Y8	Z8	X9	Y9	Z9	X10	Y10	Z10	X11	Y11	Z11	X12	Y12	Z12	X13	Y13	Z13	X14	Y14	Z14	X15	Y15	Z15	X16	Y16	Z16	X17	Y17	Z17	X18	Y18	Z18	X19	Y19	Z19	X20	Y20	Z20	X21	Y21	Z21	X22	Y22	Z22	X23	Y23	Z23	X24	Y24	Z24	X25	Y25	Z25	X26	Y26	Z26	X27	Y27	Z27	X28	Y28	Z28	X29	Y29	Z29	X30	Y30	Z30	X31	Y31	Z31	X32	Y32	Z32	X33	Y33	Z33	X34	Y34	Z34	X35	Y35	Z35	X36	Y36	Z36	X37	Y37	Z37	X38	Y38	Z38	X39	Y39	Z39	

78	0.385	-998.1495971679688	1498.4287109375	-463.5962219238281	-889.1942138671875	1478.75341796875	-180.2095794677734	-1007.035888671875	1036.632690429688	-453.4104614257812	-955.369384765625	1017.118713378906	-159.4010314941406	-949.0447387695312	985.6159057617188	-439.9524230957031	-879.7500610351562	101.9021759033203	-342.4272155761719	-908.1276245117188	963.7957153320312	-187.6588897705078	-1071.201782226562	914.7816772460938	-454.0657348632812	-1066.552124023438	938.814453125	-140.1426544189453	-1073.864990234375	1073.392456054688	-285.9015808105469	-880.3926391601562	694.0237426757812	-473.9725036621094	-898.5214233398438	308.5482788085938	-434.5491027832031	-961.058349609375	668.6980590820312	-467.502197265625	-849.2844848632812	599.289306640625	-446.3656616210938	-1568.513793945312	230.4586639404297	-155.2377166748047	-906.2080078125	406.0411071777344	-449.0406494140625	-930.8304443359376	576.4393920898438	-439.5263061523438	-1043.750122070312	654.6146850585938	-151.06689453125	-650.1533813476562	177.4521179199219	-381.9838256835938	-1113.204223632812	687.4994506835938	-143.2853546142578	-1086.135986328125	563.906494140625	-160.6136474609375	-1158.078979492188	600.82763671875	-160.1044311523438	-875.7393798828125	542.9481811523438	-437.3564147949219	-1155.200805664062	558.9556274414062	-154.5946350097656	-828.56689453125	413.3966064453125	-441.2276611328125	-819.9639892578125	314.598388671875	-430.8916931152344	-1241.26123046875	468.9687194824219	-144.6268157958984	-695.7925415039062	136.0951538085938	-440.2088928222656	-1278.313354492188	539.9117431640625	-143.0437927246094	-856.0775756835938	85.2869873046875	-316.1011962890625	-1331.555786132812	420.9769592285156	-149.6346893310547	-1365.377563476562	492.3248901367188	-153.2431945800781	-830.5343627929688	131.461181640625	-403.5916748046875	-1515.632934570312	366.3310241699219	-176.1777954101562	-1537.375	174.1364593505859	-211.9366912841797	-1525.7041015625	420.2690734863281	-235.1426544189453	-1545.730712890625	401.8205871582031	-271.4006958007812	-1555.89404296875	419.0098571777344	-215.2114715576172	-868.4181518554688	73.52600860595703	-367.4344787597656
79	0.39	-981.3856201171876	1495.135009765625	-464.6881408691406	-871.686279296875	1476.041259765625	-181.3157958984375	-990.5281982421876	1033.756225585938	-453.2357482910156	-939.0836181640624	1014.732849121094	-159.3461761474609	-932.4961547851562	983.029052734375	-439.76220703125	-859.9033813476562	99.10321807861328	-341.1930541992188	-891.1206665039062	961.7273559570312	-187.7024993896484	-1054.415161132812	911.6673583984376	-454.2651672363281	-1049.45068359375	935.3828125	-140.1306610107422	-1057.492919921875	1070.357055664062	-285.7786254882812	-863.6915893554688	690.0695190429688	-474.9185180664062	-879.7261352539062	305.8253784179688	-434.0016784667969	-944.7340698242188	664.5008544921875	-468.69189453125	-832.3140258789062	596.0361938476562	-446.5799255371094	-1554.378295898438	238.9714813232422	-153.9873657226562	-888.0253295898438	403.531982421875	-448.5147094726562	-913.8887939453124	572.6258544921875	-439.3277282714844	-1023.58984375	650.7432250976562	-151.2584228515625	-631.0330810546875	177.2176361083984	-379.9955139160156	-1093.155883789062	683.1680908203125	-142.9641418457031	-1064.674682617188	560.276611328125	-160.0179138183594	-1137.469848632812	595.8677368164062	-159.9852905273438	-858.4899291992188	539.8803100585938	-436.4622192382812	-1134.049926757812	553.9400024414062	-154.5504913330078	-810.2122192382812	411.0685424804688	-439.7850646972656	-801.2827758789062	312.5073852539062	-429.427490234375	-1221.381713867188	466.611083984375	-143.7784271240234	-676.001220703125	135.6288452148438	-437.9749145507812	-1256.323974609375	538.3509521484375	-142.8114318847656	-835.940185546875	82.64990997314453	-314.6170043945312	-1313.64697265625	421.0394287109375	-149.9010009765625	-1344.8974609375	493.7789611816406	-153.0861053466797	-810.8995971679688	129.4730224609375	-402.0668640136719	-1498.94091796875	373.1001586914062	-176.0097961425781	-1524.807250976562	181.4749145507812	-209.6166534423828	-1507.867065429688	427.1184692382812	-235.8636932373047	-1528.740600585938	408.6524963378906	-271.2735595703125	-1538.087890625	426.4712524414062	-215.3017883300781	-848.0574340820312	70.76119995117188	-365.7005310058594
80	0.395	-964.234130859375	1491.239990234375	-465.775390625	-854.2623291015625	1472.86376953125	-182.2705535888672	-974.1806640625	1030.52490234375	-453.2291870117188	-922.9236450195312	1011.899658203125	-159.0985260009766	-915.9401245117188	980.0642700195312	-439.8319702148438	-841.4242553710938	96.10442352294922	-339.1868286132812	-874.4518432617188	959.2317504882812	-187.2901611328125	-1037.970092773438	908.3983154296876	-454.4669189453125	-1032.236938476562	931.2532348632812	-140.2746734619141	-1041.099365234375	1067.521240234375	-285.957275390625	-846.793212890625	686.279052734375	-475.4163208007812	-861.3626708984375	302.8906555175781	-432.9813842773438	-927.59130859375	659.87158203125	-469.7319946289062	-815.2259521484375	592.7330932617188	-445.8768005371094	-1540.583374023438	246.9401702880859	-152.6865081787109	-870.0633544921875	400.3264465332031	-447.6387939453125	-896.4973754882812	568.849853515625	-438.7174682617188	-1003.295959472656	647.0624389648438	-151.20703125	-612.8600463867188	175.9787445068359	-378.1025390625	-1073.22412109375	678.01904296875	-142.6442565917969	-1043.130981445312	555.5396118164062	-160.1585540771484	-1116.1630859375	590.701416015625	-159.4384155273438	-840.720947265625	537.21484375	-435.8491516113281	-1112.391235351562	548.584228515625	-153.9601135253906	-792.4257202148438	408.638427734375	-438.5748291015625	-782.8433837890625	310.0149536132812	-427.9461364746094	-1201.009399414062	463.8439331054688	-143.8980102539062	-657.508056640625	133.9563751220703	-435.8853149414062	-1234.08935546875	536.61474609375	-142.898681640625	-817.4871215820312	79.88462829589844	-313.3023986816406	-1294.700317382812	421.2355651855469	-149.9159240722656	-1324.0498046875	494.5495300292969	-153.3074493408203	-792.1578979492188	126.6682205200195	-400.3424987792969	-1481.531372070312	379.2806396484375	-176.9992980957031	-1512.826538085938	188.3948822021484	-208.2738647460938	-1488.863159179688	433.5518798828125	-236.7826232910156	-1510.005737304688	415.6516418457031	-272.1517639160156	-1519.03515625	433.8086242675781	-216.2974395751953	-829.4751586914062	68.12666320800781	-364.0468444824219
81	0.4	-946.9797973632812	1487.3408203125	-467.1140747070312	-836.9019775390625	1469.432373046875	-183.2707061767578	-958.0247192382812	1027.2998046875	-453.2657775878906	-906.3389282226562	1008.733581542969	-159.0498199462891	-899.4946899414062	977.087158203125	-439.6694946289062	-823.9456787109375	93.32070159912108	-337.339111328125	-857.9158325195312	955.9292602539062	-187.1302642822266	-1021.254760742188	904.7947998046876	-454.3621215820312	-1014.836853027344	926.99072265625	-140.4921875	-1024.883178710938	1063.982177734375	-285.9880676269531	-829.7424926757812	682.6223754882812	-475.3081359863281	-843.674072265625	299.5837097167969	-432.1590576171875	-910.5137939453124	655.5850830078125	-470.2623901367188	-797.6815795898438	589.5514526367188	-444.1119995117188	-1524.998779296875	256.2549438476562	-151.6143646240234	-852.0053100585938	397.6515197753906	-447.0877075195312	-879.0482177734375	564.9196166992188	-437.9439697265625	-982.1968383789062	642.7440795898438	-150.0690460205078	-595.8897094726562	173.9802551269531	-376.2716369628906	-1053.313598632812	673.200927734375	-142.4136047363281	-1021.641235351562	550.6114501953125	-159.6675109863281	-1094.943969726562	584.683349609375	-159.1659698486328	-822.9011840820312	534.4254760742188	-434.958984375	-1090.5419921875	543.129638671875	-153.8916168212891	-774.4016723632812	405.3230895996094	-437.3443603515625	-765.14453125	307.0421752929688	-426.2351379394531	-1181.266479492188	458.9159240722656	-146.5253753662109	-640.229736328125	131.4058227539062	-433.8290405273438	-1211.142700195312	534.2520751953125	-142.5392150878906	-800.2181396484375	77.57063293457031	-310.4529113769531	-1275.522338867188	420.7283630371094	-150.5137634277344	-1302.375610351562	495.2286987304688	-153.2331848144531	-774.8705444335938	124.09765625	-398.4247131347656	-1462.780029296875	385.8150939941406	-176.6693725585938	-1499.55908203125	195.7998046875	-206.5854339599609	-1468.859252929688	439.7500915527344	-237.4803314208984	-1491.200439453125	421.9448852539062	-272.5971984863281	-1498.842041015625	441.0130920410156	-215.7882843017578	-811.6871337890625	64.76472473144531	-362.0827941894531
82	0.405	-930.138671875	1483.107177734375	-468.1314392089844	-819.6474609375	1465.820678710938	-184.186279296875	-941.80859375	1023.884399414062	-453.2703552246094	-890.4322509765625	1005.070068359375	-158.7532806396484	-883.106689453125	973.8815307617188	-439.542236328125	-807.7316284179688	90.24103546142578	-335.2966613769531	-841.2028198242188	953.203857421875	-186.956787109375	-1004.598693847656	900.7962646484376	-454.4972839355469	-998.16259765625	922.569091796875	-140.9987640380859	-1008.687377929688	1060.40771484375	-285.6808471679688	-812.3248901367188	678.9072265625	-474.25341796875	-826.5580444335938	296.7089538574219	-431.0751953125	-893.0107421875	651.200439453125	-470.1535034179688	-779.9963989257812	586.6431274414062	-441.2433471679688	-1509.317749023438	264.4695434570312	-150.6294403076172	-834.7612915039062	394.3844909667969	-446.2906188964844	-860.8535766601562	561.174560546875	-436.7860412597656	-961.4151611328124	638.6364135742188	-149.3497009277344	-579.8575439453125	171.3121643066406	-373.8824768066406	-1033.319213867188	667.5392456054688	-142.3275756835938	-999.7634887695312	545.582763671875	-158.9083251953125	-1073.576171875	578.5166625976562	-158.9371337890625	-805.1226806640625	531.4649047851562	-434.2658386230469	-1067.994140625	537.2964477539062	-153.2442932128906	-756.7928466796875	402.2771301269531	-436.1755981445312	-747.9371337890625	303.6072998046875	-424.7367553710938	-1160.090087890625	456.043701171875	-145.9408874511719	-623.7298583984375	127.5654296875	-431.4701538085938	-1188.072998046875	531.5921020507812	-142.2887725830078	-783.9398193359375	74.95051574707031	-308.1462707519531	-1255.904907226562	420.0595092773438	-150.6088256835938	-1280.413696289062	495.553955078125	-153.3954467773438	-758.542724609375	120.7458801269531	-396.2400207519531	-1444.28857421875	392.0451965332031	-177.511962890625	-1486.3544921875	202.6953735351562	-205.5328216552734	-1447.638427734375	445.1943359375	-238.4508666992188	-1471.057250976562	427.8078002929688	-273.0315246582031	-1478.68798828125	448.3695983886719	-219.5883636474609	-795.6309204101562	61.62124633789062	-359.2699584960938
